<svg width="16" height="16" viewBox="0 0 16 16" fill="none" xmlns="http://www.w3.org/2000/svg">
<path fill-rule="evenodd" clip-rule="evenodd" d="M5.1542 13.8884C4.81615 14.0649 4.40719 14.0338 4.09968 13.8083C3.79217 13.5828 3.63959 13.2021 3.70626 12.8267L4.24582 9.73404L1.97421 7.55714C1.69654 7.29234 1.59478 6.89207 1.71227 6.52681C1.82976 6.16156 2.1458 5.89568 2.52577 5.84242L5.67975 5.39157L7.10368 2.55105C7.27251 2.21039 7.61985 1.99487 8.00005 1.99487C8.38025 1.99487 8.72759 2.21039 8.89642 2.55105L10.3204 5.39157L13.4743 5.84242C13.8543 5.89568 14.1703 6.16156 14.2878 6.52681C14.4053 6.89207 14.3036 7.29234 14.0259 7.55714L11.7543 9.73404L12.2938 12.8273C12.3605 13.2028 12.2079 13.5835 11.9004 13.809C11.5929 14.0345 11.184 14.0656 10.8459 13.8891L8.00005 12.4185L5.1542 13.8884Z" fill="#FFCC00"/>
</svg>
